<svg xmlns="http://www.w3.org/2000/svg"  viewBox="0 0 64 64" width="64px" height="64px" baseProfile="basic"><path fill="#37d0ee" d="M44,10H20c-5.523,0-10,4.477-10,10v24c0,5.523,4.477,10,10,10h24c5.523,0,10-4.477,10-10V20	C54,14.477,49.523,10,44,10z"/><ellipse cx="32" cy="61" opacity=".3" rx="20.125" ry="3"/><path fill="#fff" d="M22,15c2.761,0,5-2.238,5-5h-7c-5.523,0-10,4.477-10,10v22c2.761,0,5-2.238,5-5V20 c0-2.757,2.243-5,5-5H22z" opacity=".3"/><path d="M54,44V22c-2.761,0-5,2.238-5,5v17c0,2.757-2.243,5-5,5h-5c-2.761,0-5,2.238-5,5h10 C49.523,54,54,49.523,54,44z" opacity=".15"/><path fill="#fff" d="M14,21.5c-0.828,0-1.5-0.671-1.5-1.5c0-4.136,3.364-7.5,7.5-7.5c0.828,0,1.5,0.671,1.5,1.5	s-0.672,1.5-1.5,1.5c-2.481,0-4.5,2.019-4.5,4.5C15.5,20.829,14.828,21.5,14,21.5z"/><path fill="#9c34c2" d="M21.645,49c-1.024,0-2.048-0.112-3.072-0.336c-1.023-0.224-1.912-0.552-2.664-0.984 c-0.447-0.24-0.728-0.564-0.84-0.972c-0.112-0.408-0.088-0.804,0.072-1.188c0.16-0.384,0.416-0.656,0.768-0.816 c0.353-0.16,0.776-0.12,1.272,0.12c0.64,0.368,1.352,0.64,2.136,0.816c0.784,0.176,1.561,0.264,2.328,0.264 c1.152,0,1.98-0.18,2.484-0.54s0.756-0.812,0.756-1.356c0-0.464-0.177-0.832-0.528-1.104c-0.352-0.272-0.968-0.504-1.848-0.696 l-2.712-0.576c-3.024-0.64-4.536-2.208-4.536-4.704c0-1.072,0.288-2.012,0.864-2.82c0.575-0.808,1.38-1.436,2.411-1.884 c1.032-0.448,2.229-0.672,3.589-0.672c0.896,0,1.775,0.108,2.64,0.324c0.864,0.216,1.624,0.532,2.28,0.948 c0.399,0.24,0.647,0.552,0.744,0.936c0.096,0.384,0.067,0.752-0.085,1.104c-0.151,0.352-0.407,0.6-0.768,0.744 s-0.804,0.088-1.332-0.168c-0.528-0.272-1.088-0.472-1.68-0.6c-0.593-0.128-1.2-0.192-1.824-0.192c-1.008,0-1.788,0.196-2.34,0.588 s-0.828,0.9-0.828,1.524c0,0.464,0.168,0.84,0.504,1.128s0.92,0.521,1.752,0.696l2.712,0.576c3.104,0.672,4.656,2.192,4.656,4.56 c0,1.056-0.284,1.98-0.853,2.772c-0.567,0.792-1.367,1.408-2.399,1.848S23.054,49,21.645,49z"/><path fill="#9c34c2" d="M36.789,49c-1.392,0-2.588-0.252-3.588-0.756c-1-0.504-1.768-1.215-2.304-2.136 c-0.536-0.92-0.804-2.004-0.804-3.252c0-1.216,0.26-2.284,0.779-3.204c0.521-0.92,1.232-1.64,2.137-2.16 c0.903-0.52,1.947-0.78,3.132-0.78c1.712,0,3.071,0.54,4.08,1.62c1.008,1.08,1.512,2.54,1.512,4.38 c0,0.608-0.376,0.912-1.128,0.912H33.55c0.127,0.928,0.468,1.604,1.02,2.028c0.552,0.424,1.315,0.636,2.292,0.636 c0.384,0,0.819-0.043,1.308-0.132c0.488-0.088,0.956-0.244,1.404-0.468c0.464-0.224,0.855-0.268,1.176-0.132 c0.32,0.136,0.54,0.364,0.66,0.684c0.12,0.32,0.12,0.652,0,0.996c-0.12,0.344-0.388,0.628-0.804,0.852 c-0.561,0.304-1.181,0.532-1.86,0.684S37.413,49,36.789,49z M36.285,39.112c-0.768,0-1.388,0.232-1.859,0.696 c-0.473,0.464-0.765,1.112-0.876,1.944h5.184C38.638,39.992,37.821,39.112,36.285,39.112z"/><path fill="#98c900" d="M39,31h-0.041c-1.108,0-2.164-0.47-2.905-1.294L25.689,18.189c-0.739-0.821-0.672-2.086,0.149-2.825	l2.973-2.676c0.821-0.739,2.086-0.672,2.824,0.149l7.426,8.25L52.45,6.805c0.755-0.806,2.021-0.847,2.827-0.091l2.918,2.736	c0.806,0.755,0.847,2.021,0.091,2.827L41.918,29.736C41.162,30.542,40.106,31,39,31z"/></svg>